<svg width="10" height="7" viewBox="0 0 10 7" fill="none" xmlns="http://www.w3.org/2000/svg">
<mask id="mask0_2098_2" style="mask-type:luminance" maskUnits="userSpaceOnUse" x="0" y="0" width="10" height="7">
<path d="M10 7H0V0.07692H10V7Z" fill="white"/>
</mask>
<g mask="url(#mask0_2098_2)">
<path fill-rule="evenodd" clip-rule="evenodd" d="M5.20123 1.79877C5.069 1.66658 4.88968 1.59232 4.7027 1.59232C4.51573 1.59232 4.33641 1.66658 4.20418 1.79877L0.215267 5.78768C0.147921 5.85273 0.0942022 5.93053 0.0572471 6.01656C0.0202921 6.10259 0.000840211 6.19512 2.6623e-05 6.28874C-0.000786965 6.38237 0.0170542 6.47522 0.0525086 6.56188C0.0879631 6.64854 0.140321 6.72727 0.206527 6.79347C0.272734 6.85968 0.351463 6.91204 0.43812 6.94749C0.524778 6.98295 0.617629 7.00079 0.711255 6.99997C0.804882 6.99916 0.897408 6.97971 0.983437 6.94275C1.06947 6.9058 1.14727 6.85208 1.21232 6.78473L4.7027 3.29435L8.19309 6.78473C8.32608 6.91318 8.50419 6.98425 8.68907 6.98264C8.87396 6.98104 9.05081 6.90688 9.18155 6.77614C9.31228 6.64541 9.38644 6.46855 9.38805 6.28367C9.38966 6.09879 9.31858 5.92067 9.19014 5.78768L5.20123 1.79877Z" fill="white"/>
</g>
</svg>
