<svg width="24" height="24" viewBox="0 0 24 24" fill="none" xmlns="http://www.w3.org/2000/svg">
<path fill-rule="evenodd" clip-rule="evenodd" d="M11.7687 19C11.3858 19 11.0591 18.7157 10.9968 18.3282C10.9394 18.0147 10.7193 17.7585 10.4233 17.6607C10.182 17.5757 9.9462 17.4756 9.71708 17.3607C9.44445 17.2177 9.11738 17.2391 8.86465 17.4164C8.55881 17.642 8.13867 17.607 7.87224 17.3339L6.83596 16.2711C6.55706 15.985 6.52083 15.534 6.7503 15.205C6.92726 14.9398 6.95275 14.5979 6.81715 14.3082C6.72781 14.107 6.64899 13.901 6.58106 13.6911C6.48377 13.3603 6.21521 13.1126 5.88428 13.0482C5.48522 12.9829 5.19061 12.6313 5.18751 12.2168V10.8871C5.18539 10.4094 5.52184 10.0007 5.98144 9.92286C6.3301 9.85482 6.62124 9.60989 6.75447 9.2725C6.79417 9.1775 6.83596 9.08321 6.87983 8.98964C7.05702 8.63976 7.03255 8.21833 6.8161 7.8925C6.54543 7.50666 6.58699 6.97653 6.9143 6.64L7.67585 5.85893C8.05145 5.47356 8.64382 5.42368 9.07567 5.74107L9.09969 5.75821C9.42216 5.98081 9.8325 6.02113 10.1903 5.86536C10.5731 5.72405 10.8552 5.38669 10.933 4.97714L10.9435 4.94071C11.0295 4.39854 11.486 4.00023 12.0216 4H12.9409C13.4909 3.99974 13.9602 4.40775 14.0502 4.96429L14.067 5.03929C14.1408 5.43161 14.4083 5.75631 14.7731 5.89643C15.1248 6.05122 15.5291 6.01079 15.845 5.78929L15.8972 5.75071C16.3402 5.42322 16.9494 5.47359 17.3357 5.86964L18.0366 6.58964C18.3879 6.95196 18.4321 7.52171 18.1411 7.93643C17.9131 8.28306 17.884 8.72848 18.0648 9.10321L18.1098 9.21036C18.2561 9.57625 18.573 9.84143 18.9517 9.91536C19.4468 9.99818 19.8109 10.436 19.8125 10.9504V12.1429C19.8124 12.5965 19.4925 12.9835 19.0562 13.0579C18.6974 13.1285 18.4051 13.3949 18.2946 13.7521C18.2459 13.895 18.1915 14.0379 18.1316 14.1807C17.9922 14.4946 18.0232 14.8604 18.2132 15.145C18.4638 15.5026 18.4249 15.9939 18.1212 16.3054L17.1487 17.3039C16.8706 17.5891 16.4319 17.6259 16.1124 17.3907C15.8456 17.2037 15.5001 17.1832 15.214 17.3371C15.0101 17.4407 14.8009 17.5327 14.5872 17.6125C14.2884 17.7182 14.0681 17.9805 14.0106 18.2993C13.9496 18.7003 13.6144 18.997 13.2187 19H11.7687Z" stroke="white" stroke-linecap="round" stroke-linejoin="round"/>
<path fill-rule="evenodd" clip-rule="evenodd" d="M15.9129 11.5C15.9129 13.433 14.3851 15 12.5004 15C10.6157 15 9.08789 13.433 9.08789 11.5C9.08789 9.56699 10.6157 8 12.5004 8C14.3851 8 15.9129 9.56699 15.9129 11.5Z" stroke="white" stroke-linecap="round" stroke-linejoin="round"/>
</svg>
